# xmcd
#
# Track frame offsets:
#	150
#	11332
#	24507
#	36405
#	51260
#	67600
#	82685
#	98037
#	116292
#	127337
#	141227
#	152467
#
# Disc length: 2233
#
# Revision: 1
# Processed by: cddbd v1.5.1PL0 Copyright (c) Steve Scherf et al.
# Submitted via: CDex 1.51
# Normalized: r0:DSETVAR1,TDELIM( - )
#
DISCID=8c08b70c
DTITLE=Various Artist - Terra Australia - Sampler
DYEAR=1900
DGENRE=New Age
TTITLE0=Woken by Starlight - Michael Coady
TTITLE1=Amphibiashere - David Erskine
TTITLE2=Lavender Lullaby - Vicki Hansen
TTITLE3=Otway Spirits - Simon Lewis
TTITLE4=Cascades - Greg Miller
TTITLE5=Light Rain at Stony Creek - William Bowden
TTITLE6=Wetland I - Shaun Rigney
TTITLE7=Wilpena Sunrise - Alexander Svencis
TTITLE8=Emu Walk - Peter Mumme
TTITLE9=Rainbow Serpent - Peter Mumme
TTITLE10=Ancient Lamentations - Jaro Kova
TTITLE11=Endless rain - Sean Tinslay, William Bowden
EXTD=
EXTT0=
EXTT1=
EXTT2=
EXTT3=
EXTT4=
EXTT5=
EXTT6=
EXTT7=
EXTT8=
EXTT9=
EXTT10=
EXTT11=
PLAYORDER=
